<?xml version="1.0" encoding="UTF-8"?>
<svg  viewBox="0 0 670 1359" version="1.1" xmlns="http://www.w3.org/2000/svg" xmlns:xlink="http://www.w3.org/1999/xlink">
    <!-- Generator: Sketch 49.3 (51167) - http://www.bohemiancoding.com/sketch -->
    <defs>
        <path d="M13,0 L200,0 C207.179702,-1.31888981e-15 213,5.82029825 213,13 L213,219 C213,226.179702 207.179702,232 200,232 L13,232 C5.82029825,232 8.79259876e-16,226.179702 0,219 L0,13 C-8.79259876e-16,5.82029825 5.82029825,1.31888981e-15 13,0 Z" id="path-1"></path>
        <mask id="mask-2" maskContentUnits="userSpaceOnUse" maskUnits="objectBoundingBox" x="0" y="0" width="213" height="232" fill="white">
            <use xlink:href="#path-1"></use>
        </mask>
        <path d="M13,0 L347,0 C354.179702,-1.31888981e-15 360,5.82029825 360,13 L360,432 C360,439.179702 354.179702,445 347,445 L13,445 C5.82029825,445 8.79259876e-16,439.179702 0,432 L-3.55271368e-15,13 C-4.43197356e-15,5.82029825 5.82029825,1.31888981e-15 13,0 Z" id="path-3"></path>
        <mask id="mask-4" maskContentUnits="userSpaceOnUse" maskUnits="objectBoundingBox" x="0" y="0" width="360" height="445" fill="white">
            <use xlink:href="#path-3"></use>
        </mask>
        <rect id="path-5" x="38.4615147" y="4.21871121" width="14" height="84"></rect>
        <filter x="-4.1%" y="-18.4%" width="108.3%" height="136.8%" filterUnits="objectBoundingBox" id="filter-6">
            <feGaussianBlur stdDeviation="3.43470982" in="SourceGraphic"></feGaussianBlur>
        </filter>
    </defs>
    <g id="Page-1" stroke="none" stroke-width="1" fill="none" fill-rule="evenodd">
        <g class="container" id="" transform="translate(156.000000, 115.000000)">
            <g class="" id="Group-6" transform="translate(182.000000, 505.500000) rotate(-90.000000) translate(-182.000000, -505.500000) translate(-286.500000, 349.500000)">
                <path d="M414.778632,120.319439 C420.916036,107.801972 399.82746,51.2222802 362.71292,45.3626285 C315.806025,37.9569574 311.041843,69.1058987 273.527469,69.1058987 C225.424828,55.7701246 205.008492,-20.5090753 101.647942,5.28709256 C28.9597562,29.6461783 0,84.2886656 0,158.15614 C5.72376344,294.014257 98.8519912,312.769922 132.380581,311.265768 C215.740916,307.526072 233.169275,245.742614 273.527469,236.680772 C290.427848,231.253412 333.795284,277.605066 377.054421,256.053712 C385.335047,248.060892 344.126626,236.680772 349.805639,212.318112 C349.805639,193.751 359.73148,171.345497 403.665899,175.60762 C403.665899,175.60762 779.158808,171.493418 779.158808,171.493418 C806.442855,173.684682 808.066659,182.610862 810.964551,187.575826 C823.66035,183.441452 903.414996,187.293525 929.108194,193.770855 C925.548052,180.907094 934.793673,163.533951 936.139144,160.671382 C936.139144,158.786434 934.627208,156.393092 934.472005,154.580442 C934.289782,152.452227 936.417565,151.827817 936.139144,149.821254 C936.139144,143.918548 924.128764,123.721928 927.917756,120.319439 C899.753745,121.549153 856.233677,125.923539 810.964551,117.709418 C805.69778,124.557535 797.620651,130.900924 779.158808,129.30417 C779.158808,129.30417 414.778632,120.319439 414.778632,120.319439 Z" class="" id="Path-9" stroke="#FFFFFF"></path>
                <path d="M414.778632,120.319439 C420.916036,107.801972 399.82746,51.2222802 362.71292,45.3626285 C315.806025,37.9569574 311.041843,69.1058987 273.527469,69.1058987 C225.424828,55.7701246 205.008492,-20.5090753 101.647942,5.28709256 C28.9597562,29.6461783 0,84.2886656 0,158.15614 C5.72376344,294.014257 98.8519912,312.769922 132.380581,311.265768 C215.740916,307.526072 233.169275,245.742614 273.527469,236.680772 C290.427848,231.253412 333.795284,277.605066 377.054421,256.053712 C385.335047,248.060892 344.126626,236.680772 349.805639,212.318112 C349.805639,193.751 359.73148,171.345497 403.665899,175.60762 C403.665899,175.60762 414.778632,120.319439 414.778632,120.319439 Z" class="" id="Path-9" fill="#000000"></path>
                <path d="M374.908665,125.119958 C379.583108,115.586254 365.818868,82.4884441 350.791419,78.8663467 C291.918634,64.6761156 289.914849,105.027601 259.076873,85.0858642 C181.741315,35.0759254 118.051186,46.98501 98.5363052,54.6096447 C78.9442414,62.2644356 53.9961578,64.9307766 46.603917,155.633047 C39.1762543,246.76994 101.955349,259.58534 127.553914,259.58534 C173.503079,259.58534 242.425369,217.685279 259.076873,212.116302 C271.841324,207.847322 288.905469,210.00715 330.817199,230.984894 C339.79572,235.478842 321.097839,213.744468 325.423156,195.189088 C325.423156,181.047782 332.982994,163.983034 366.444852,167.229203 C366.444852,167.229203 374.908665,125.119958 374.908665,125.119958 Z" class="" id="Path-9" fill="#FFFFFF" opacity="0.219372736"></path>
                <polygon class="" id="Path-10" fill="#F4D7AC" points="340 121 340 175.866077 779.112263 171.877937 779.112263 129.815103"></polygon>
            </g>
            <g class="zoomable headstock" id="" transform="translate(76.000000, 0.000000)" fill="#7ED321" opacity="0" stroke="#7ED321" stroke-dasharray="10,10" stroke-width="6">
                <use class="rect" id="" mask="url(#mask-2)" xlink:href="#path-1"></use>
            </g>
            <g class="" id="Group-7" transform="translate(182.000000, 109.500000) rotate(-90.000000) translate(-182.000000, -109.500000) translate(142.500000, 57.500000)" fill="#D7CFAF">
                <polygon class="tuner e2" id="" points="3.96908285 19.1980105 3.96908285 15.568123 0 12.6359927 0 2.11817219 7.56743023 -2.84217094e-14 15.1664007 3.21211849 15.1664007 12.6359927 12.4129981 15.568123 12.4129981 19.1980105"></polygon>
                <polygon class="tuner e4" id="" transform="translate(9.583200, 89.599005) rotate(-180.000000) translate(-9.583200, -89.599005) " points="5.96908285 99.1980105 5.96908285 95.568123 2 92.6359927 2 82.1181722 9.56743023 80 17.1664007 83.2121185 17.1664007 92.6359927 14.4129981 95.568123 14.4129981 99.1980105"></polygon>
                <polygon class="tuner a2" id="" points="33.9690829 19.1980105 33.9690829 15.568123 30 12.6359927 30 2.11817219 37.5674302 -2.84217094e-14 45.1664007 3.21211849 45.1664007 12.6359927 42.4129981 15.568123 42.4129981 19.1980105"></polygon>
                <polygon class="tuner b3" id="" transform="translate(40.583200, 91.599005) rotate(-180.000000) translate(-40.583200, -91.599005) " points="36.9690829 101.198011 36.9690829 97.568123 33 94.6359927 33 84.1181722 40.5674302 82 48.1664007 85.2121185 48.1664007 94.6359927 45.4129981 97.568123 45.4129981 101.198011"></polygon>
                <polygon class="tuner d3" id="" points="63.9690829 19.1980105 63.9690829 15.568123 60 12.6359927 60 2.11817219 67.5674302 -2.84217094e-14 75.1664007 3.21211849 75.1664007 12.6359927 72.4129981 15.568123 72.4129981 19.1980105"></polygon>
                <polygon class="tuner g3" id="" transform="translate(70.583200, 93.599005) rotate(-180.000000) translate(-70.583200, -93.599005) " points="66.9690829 103.198011 66.9690829 99.568123 63 96.6359927 63 86.1181722 70.5674302 84 78.1664007 87.2121185 78.1664007 96.6359927 75.4129981 99.568123 75.4129981 103.198011"></polygon>
            </g>
            <g class="zoomable pickups" id="" transform="translate(0.000000, 543.000000)" fill="#FFFFFF" fill-opacity="0" opacity="0" stroke="#D0021B" stroke-dasharray="10,10" stroke-width="6">
                <use class="rect" id="" mask="url(#mask-4)" xlink:href="#path-3"></use>
            </g>
            <g class="" id="Group-5-Copy" transform="translate(176.000000, 438.000000) rotate(-90.000000) translate(-176.000000, -438.000000) translate(-225.000000, 390.000000)">
                <path d="M651,70.0804593 C658.776006,70.0804593 668.838828,74.0902062 678.357767,83.9730733 C691.053566,79.8386991 769.039297,85.5841068 794.732495,92.0614372 C791.172353,79.1976764 800.417974,61.8245334 801.763445,58.9619644 C801.763445,57.0770161 800.251509,54.6836744 800.096305,52.8710238 C799.914082,50.7428088 802.041866,50.1183991 801.763445,48.1118356 C801.763445,42.2091296 789.753065,22.0125102 793.542056,18.6100213 C765.378046,19.8397348 721.857978,24.2141213 676.588851,16 C670.851724,26.2492925 659.846251,26.8319483 651,27.2725554 C651,27.2725554 651,67.3445884 651,70.0804593 Z" class="" id="Path-9" fill="#000000"></path>
                <path d="M661,61.2844497 C667.497684,61.2844497 675.906247,63.604007 683.860339,69.3210454 C694.469036,66.9293937 759.63445,70.2529956 781.103863,74 C778.128984,66.5585751 781.103863,55.8754413 782.060581,49.1411869 C782.060581,44.549787 779.492174,33.5496568 780.109124,31.5098444 C756.575084,32.2212088 720.209414,34.7517027 682.382221,30 C677.588237,35.929008 668.391988,36.2660626 661,36.5209448 C661,36.5209448 661,59.7018039 661,61.2844497 Z" class="" id="Path-9" fill="#FFFFFF" opacity="0.22"></path>
                <path d="M646.5,63.5 L700.5,68.5" class="" id="Line-3" stroke="#979797" opacity="0.506397192" stroke-linecap="square"></path>
                <path d="M645.5,56.5 L730.5,67.5" class="" id="Line-3" stroke="#979797" opacity="0.506397192" stroke-linecap="square"></path>
                <path d="M645.5,50.5 L763.5,71.5" class="" id="Line-3-Copy" stroke="#979797" opacity="0.506397192" stroke-linecap="square"></path>
                <path d="M646.5,44.5 L763.5,32.5" class="" id="Line-3-Copy-2" stroke="#979797" opacity="0.506397192" stroke-linecap="square"></path>
                <path d="M646.5,37.5 L728.5,33.5" class="" id="Line-3-Copy-3" stroke="#979797" opacity="0.506397192" stroke-linecap="square"></path>
                <path d="M646.5,31.5 L698.5,30.5" class="" id="Line-3-Copy-4" stroke="#979797" opacity="0.506397192" stroke-linecap="square"></path>
                <rect class="" id="Rectangle-5" fill="#D8D8D8" x="645" y="27" width="6" height="43"></rect>
                <g class="" id="Group-4" transform="translate(65.000000, 2.000000)">
                    <rect class="" id="Rectangle-6" fill="#DFDBD6" x="0" y="0" width="45" height="88"></rect>
                    <rect class="" id="Rectangle-6-Copy-4" fill="#CED3D6" x="6" y="5" width="34" height="78"></rect>
                </g>
                <g class="" id="Group-4-Copy" transform="translate(161.000000, 2.000000)">
                    <rect class="" id="Rectangle-6" fill="#DFDBD6" x="0" y="0" width="45" height="88"></rect>
                    <rect class="" id="Rectangle-6-Copy-4" fill="#CED3D6" x="6" y="5" width="34" height="78"></rect>
                </g>
                <g class="" id="Rectangle-6-Copy-2" opacity="0.400022645" transform="translate(45.461515, 46.218711) rotate(-2.000000) translate(-45.461515, -46.218711) ">
                    <use fill="#CED3D6" fill-rule="evenodd" xlink:href="#path-5"></use>
                    <rect stroke="#000000" stroke-width="2" x="39.4615147" y="5.21871121" width="12" height="82"></rect>
                </g>
                <path d="M15.5,21.5 L645.5,31.5" class="string" id="#e2" stroke="#968F8F" stroke-width="4" stroke-linecap="square"></path>
                <path d="M15.5,32.5 L645.5,37.5" class="string" id="#a2" stroke="#968F8F" stroke-width="4" stroke-linecap="square"></path>
                <path d="M15.5,41.5 L645.5,44.5" class="string" id="#d3" stroke="#968F8F" stroke-width="4" stroke-linecap="square"></path>
                <path d="M15.5,51.5 L645.338937,50.1725391" class="string" id="#g3" stroke="#968F8F" stroke-width="4" stroke-linecap="square"></path>
                <path d="M14.5,60.5 L644.338937,57.1725391" class="string" id="#b3" stroke="#968F8F" stroke-width="4" stroke-linecap="square"></path>
                <path d="M15.5,71.5 L645.338937,64.1725391" class="string" id="#e4" stroke="#968F8F" stroke-width="4" stroke-linecap="square"></path>
                <path d="M16.4934006,3.15971835 C14.0257093,2.84217094e-14 14.0183971,2.84217094e-14 10.146225,2.84217094e-14 C6.2740528,2.84217094e-14 4.33878789,0.970684894 2.39781217,3.15971835 C1.22793183,11.5205787 -0.782226879,89.0281694 0.319105739,92.7186946 C2.39781217,94.3144265 4.21387543,95.0328385 7.09728837,95.0328385 C9.98070132,95.0328385 14.2786187,95.0328385 16.4934006,92.7186946 C14.4358554,45.9747198 16.4934006,10.1300723 16.4934006,3.15971835 Z" class="" id="Path-11" fill="#D8D8D8" opacity="0.398494112"></path>
                <circle class="tuner-knob e2" id="" fill="#CED3D6" cx="697.5" cy="26.5" r="4.5"></circle>
                <circle class="tuner-knob a2" id="" fill="#CED3D6" cx="728.5" cy="29.5" r="4.5"></circle>
                <circle class="tuner-knob d3" id="" fill="#CED3D6" cx="762.5" cy="28.5" r="4.5"></circle>
                <circle class="tuner-knob g3" id="" fill="#CED3D6" cx="762.5" cy="74.5" r="4.5"></circle>
                <circle class="tuner-knob b3" id="" fill="#CED3D6" cx="730.5" cy="71.5" r="4.5"></circle>
                <circle class="tuner-knob e4" id="" fill="#CED3D6" cx="698.5" cy="71.5" r="4.5"></circle>
            </g>
            <ellipse class="" id="Oval-2" fill="#ADABAB" opacity="0.849014946" filter="url(#filter-6)" cx="191.5" cy="1162" rx="124.5" ry="28"></ellipse>
        </g>
    </g>
</svg>